<svg width="22" height="21" viewBox="0 0 22 21" fill="none" xmlns="http://www.w3.org/2000/svg">
<path d="M19.8537 15.75C20.4229 15.75 20.9688 15.5287 21.3714 15.1349C21.7739 14.7411 22 14.207 22 13.65V2.1C22 1.54305 21.7739 1.0089 21.3714 0.615076C20.9688 0.221249 20.4229 0 19.8537 0H8.54244C8.91805 0.6405 9.12195 1.365 9.12195 2.1H19.8537V13.65H10.1951V15.75M14.4878 5.25V7.35H8.04878V21H5.90244V14.7H3.7561V21H1.60976V12.6H0V7.35C0 6.79305 0.226132 6.2589 0.628649 5.86508C1.03117 5.47125 1.5771 5.25 2.14634 5.25H14.4878ZM6.97561 2.1C6.97561 2.65695 6.74948 3.1911 6.34696 3.58492C5.94444 3.97875 5.39851 4.2 4.82927 4.2C4.26002 4.2 3.71409 3.97875 3.31158 3.58492C2.90906 3.1911 2.68293 2.65695 2.68293 2.1C2.68293 1.54305 2.90906 1.0089 3.31158 0.615076C3.71409 0.221249 4.26002 0 4.82927 0C5.39851 0 5.94444 0.221249 6.34696 0.615076C6.74948 1.0089 6.97561 1.54305 6.97561 2.1Z" fill="#7B2CBF"/>
</svg>
